<svg id="Accounting" height="512" viewBox="0 0 64 64" width="512" xmlns="http://www.w3.org/2000/svg" xmlns:xlink="http://www.w3.org/1999/xlink"><linearGradient id="gradient_ice" gradientUnits="userSpaceOnUse" x1="-1.426" x2="54.736" y1="60.906" y2="3.357"><stop offset="0" stop-color="#fff200"/><stop offset="1" stop-color="#cd118c"/></linearGradient><linearGradient id="gradient_ice-2" x1=".949" x2="57.111" xlink:href="#gradient_ice" y1="63.223" y2="5.675"/><linearGradient id="gradient_ice-4" x1="9.179" x2="65.341" xlink:href="#gradient_ice" y1="71.255" y2="13.706"/><linearGradient id="gradient_ice-5" x1="9.33" x2="65.492" xlink:href="#gradient_ice" y1="71.403" y2="13.854"/><linearGradient id="gradient_ice-6" x1="12.829" x2="68.991" xlink:href="#gradient_ice" y1="74.817" y2="17.269"/><linearGradient id="gradient_ice-7" x1="16.328" x2="72.49" xlink:href="#gradient_ice" y1="78.232" y2="20.683"/><linearGradient id="gradient_ice-8" x1="13.427" x2="69.589" xlink:href="#gradient_ice" y1="75.402" y2="17.853"/><linearGradient id="gradient_ice-9" x1="16.926" x2="73.088" xlink:href="#gradient_ice" y1="78.816" y2="21.267"/><linearGradient id="gradient_ice-10" x1="20.425" x2="76.587" xlink:href="#gradient_ice" y1="82.231" y2="24.682"/><linearGradient id="gradient_ice-11" x1="17.525" x2="73.687" xlink:href="#gradient_ice" y1="79.4" y2="21.852"/><linearGradient id="gradient_ice-12" x1="22.773" x2="78.935" xlink:href="#gradient_ice" y1="84.522" y2="26.974"/><path d="m18 30a11 11 0 1 0 11 11 11.007 11.007 0 0 0 -11-11zm0 20a9 9 0 1 1 9-9 9.014 9.014 0 0 1 -9 9z" fill="url(#gradient_ice)"/><path d="m59 25h-9v-22a1 1 0 0 0 -1-1h-46a1 1 0 0 0 -1 1v54a1 1 0 0 0 1 1h29v1a3.009 3.009 0 0 0 3 3h24a3.009 3.009 0 0 0 3-3v-31a3.009 3.009 0 0 0 -3-3zm-27 3v28h-28v-52h44v21h-2v-17a1 1 0 0 0 -1-1h-38a1 1 0 0 0 -1 1v18a1 1 0 0 0 1 1h25.18a3 3 0 0 0 -.18 1zm-1-11v-2h13v2zm13 2v2h-13v-2zm-13-6v-4h13v4zm-14 8v-2h12v2zm12 2v2h-12v-2zm-12-6v-2h12v2zm0-4v-4h12v4zm-9 8v-2h7v2zm7 2v2h-7v-2zm-7-6v-2h7v2zm0-4v-4h7v4zm23 12v-2h13v2zm29 34a1 1 0 0 1 -1 1h-24a1 1 0 0 1 -1-1v-31a1 1 0 0 1 1-1h24a1 1 0 0 1 1 1z" fill="url(#gradient_ice-2)"/><path d="m20 40h-1v-2h1a1 1 0 0 1 1 1h2a3.009 3.009 0 0 0 -3-3h-1v-2h-2v2h-1a3 3 0 0 0 0 6h1v2h-1a1 1 0 0 1 -1-1h-2a3.009 3.009 0 0 0 3 3h1v2h2v-2h1a3 3 0 0 0 0-6zm-3 0h-1a1 1 0 0 1 0-2h1zm3 4h-1v-2h1a1 1 0 0 1 0 2z" fill="url(#gradient_ice)"/><path d="m57 29h-20a1 1 0 0 0 -1 1v5a1 1 0 0 0 1 1h20a1 1 0 0 0 1-1v-5a1 1 0 0 0 -1-1zm-1 5h-18v-3h18z" fill="url(#gradient_ice-4)"/><path d="m41 38h-4a1 1 0 0 0 -1 1v4a1 1 0 0 0 1 1h4a1 1 0 0 0 1-1v-4a1 1 0 0 0 -1-1zm-1 4h-2v-2h2z" fill="url(#gradient_ice-5)"/><path d="m41 45h-4a1 1 0 0 0 -1 1v4a1 1 0 0 0 1 1h4a1 1 0 0 0 1-1v-4a1 1 0 0 0 -1-1zm-1 4h-2v-2h2z" fill="url(#gradient_ice-6)"/><path d="m41 52h-4a1 1 0 0 0 -1 1v4a1 1 0 0 0 1 1h4a1 1 0 0 0 1-1v-4a1 1 0 0 0 -1-1zm-1 4h-2v-2h2z" fill="url(#gradient_ice-7)"/><path d="m49 38h-4a1 1 0 0 0 -1 1v4a1 1 0 0 0 1 1h4a1 1 0 0 0 1-1v-4a1 1 0 0 0 -1-1zm-1 4h-2v-2h2z" fill="url(#gradient_ice-8)"/><path d="m49 45h-4a1 1 0 0 0 -1 1v4a1 1 0 0 0 1 1h4a1 1 0 0 0 1-1v-4a1 1 0 0 0 -1-1zm-1 4h-2v-2h2z" fill="url(#gradient_ice-9)"/><path d="m49 52h-4a1 1 0 0 0 -1 1v4a1 1 0 0 0 1 1h4a1 1 0 0 0 1-1v-4a1 1 0 0 0 -1-1zm-1 4h-2v-2h2z" fill="url(#gradient_ice-10)"/><path d="m57 38h-4a1 1 0 0 0 -1 1v4a1 1 0 0 0 1 1h4a1 1 0 0 0 1-1v-4a1 1 0 0 0 -1-1zm-1 4h-2v-2h2z" fill="url(#gradient_ice-11)"/><path d="m57 45h-4a1 1 0 0 0 -1 1v11a1 1 0 0 0 1 1h4a1 1 0 0 0 1-1v-11a1 1 0 0 0 -1-1zm-1 11h-2v-9h2z" fill="url(#gradient_ice-12)"/></svg>